<svg width="684" height="684" viewBox="0 0 684 684" fill="none" xmlns="http://www.w3.org/2000/svg">
<path fill-rule="evenodd" clip-rule="evenodd" d="M548.983 122.629C532.261 127.402 519.61 132.647 445.654 165.465C410.798 180.934 379.799 193.561 376.768 193.522C373.737 193.483 335.971 182.743 292.84 169.654C205.978 143.293 187.955 140.139 165.481 147.368C142.283 154.83 130.156 163.94 130.156 173.911C130.156 184.831 136.679 191.046 168.733 210.667C227.966 246.927 240.162 255.02 238.25 256.813C232.832 261.892 126.665 305.991 123.808 304.35C121.995 303.308 107.493 292.918 91.5803 281.257C75.6676 269.599 58.6803 258.009 53.8307 255.506C30.404 243.412 -0.13457 256.735 0.000446133 278.991C0.0362669 284.61 24.2456 342.764 45.9419 389.331C60.3253 420.208 78.7592 429.2 121.89 426.377C166.098 423.481 197.163 414.867 274.302 384.106C302.812 372.737 326.713 364.01 327.413 364.71C328.116 365.41 321.852 403.697 313.495 449.787C305.138 495.877 297.792 536.626 297.169 540.34C295.874 548.072 299.787 560.061 304.612 563.13C315.388 569.988 347.125 557.114 364.937 538.656C375.556 527.648 402.187 474.593 458.183 352.875L486.774 290.729L551.634 258.655C650.723 209.647 684 186.948 684 168.366C684 152.133 657.454 130.308 628.241 122.527C610.422 117.779 565.775 117.837 548.983 122.629ZM560.005 147.421C551.67 149.536 479.753 180.044 400.19 215.212C320.626 250.382 228.87 290.922 196.287 305.302C157.697 322.331 133.521 331.483 126.933 331.558C116.338 331.676 107.961 326.779 63.0477 294.22C39.7119 277.303 26.2267 273.454 29.7978 284.731C32.837 294.322 48.003 329.128 63.8964 362.989C74.1962 384.93 80.2334 394.562 85.0719 396.768C94.7518 401.179 129.57 400.576 154.382 395.563C185.946 389.185 241.509 369.712 300.01 344.523C373.258 312.984 365.333 315.132 363.179 327.419C362.176 333.135 353.355 380.72 343.574 433.163C333.795 485.606 325.793 529.347 325.793 530.361C325.793 535.413 334.1 530.99 344.329 520.49C353.716 510.858 365.568 487.663 410.911 390.202L466.075 271.634L539.904 234.409C607.826 200.165 639.287 182.49 651.544 171.697C655.991 167.779 655.872 167.194 649.609 162.264C629.969 146.803 589.103 140.034 560.005 147.421ZM170.532 173.379C166.368 175.02 166.118 175.935 169.154 178.417C178.795 186.298 269.538 239.929 273.299 239.97C278.457 240.028 336.814 214.473 336.814 212.159C336.814 211.26 306.747 201.609 269.995 190.712C204.515 171.294 184.629 167.828 170.532 173.379Z" fill="url(#paint0_linear_2767_40182)"/>
<defs>
<linearGradient id="paint0_linear_2767_40182" x1="-126.54" y1="663.12" x2="375.477" y2="-122.311" gradientUnits="userSpaceOnUse">
<stop stop-color="#3E4EB0"/>
<stop offset="1" stop-color="#164E47"/>
</linearGradient>
</defs>
</svg>
