<svg width="684" height="684" viewBox="0 0 684 684" fill="none" xmlns="http://www.w3.org/2000/svg">
<path fill-rule="evenodd" clip-rule="evenodd" d="M187.381 168.409C162.451 172.33 141.133 187.993 130.664 210.08C128.818 213.975 124.231 226.086 120.471 236.994C109.072 270.064 108.639 271.22 106.572 274.03C105.473 275.524 102.884 277.682 100.819 278.827L97.0641 280.906L54.9164 281.261C7.51978 281.659 9.99127 281.364 6.21356 287.071L4.26839 290.01L4.0651 339.286C3.89155 381.228 4.02471 389.534 4.96117 395.089C10.7917 429.683 38.7771 455.253 73.8064 457.993L80.2886 458.5L81.4652 463.195C85.0999 477.698 95.3435 492.789 107.973 502.246C114.042 506.79 123.78 511.614 131.774 514.036C137.728 515.839 139.016 515.967 151.254 515.967C163.475 515.967 164.778 515.838 170.581 514.057C182.747 510.324 192.091 505.028 200.672 497.002C210.621 487.696 217.895 475.171 221.386 461.335L222.146 458.324L353.963 458.502L485.78 458.682L487.133 463.994C489.058 471.551 494.684 482.49 500.167 489.337C510.09 501.729 523.248 510.239 539.438 514.737C543.107 515.757 546.632 516.013 556.793 516C568.665 515.983 569.982 515.848 575.918 514.031C601.72 506.138 620.089 487.029 626.57 461.338L627.329 458.327L650.147 458.312C670.815 458.298 673.231 458.173 675.798 456.989C679.227 455.407 681.385 453.164 682.848 449.664C684.361 446.043 684.392 414.286 682.894 401.662C678.118 361.393 656.129 325.735 622.316 303.429C607.427 293.606 591.93 287.274 573.03 283.289C566.667 281.948 562.715 281.763 531.292 281.344L496.582 280.882L492.721 278.77C489.159 276.82 487.428 274.738 470.364 251.867C460.192 238.233 446.276 219.588 439.44 210.434C420.963 185.689 412.473 178.425 394.471 171.962C382.898 167.807 386.335 167.929 283.463 168.034C231.592 168.087 188.355 168.256 187.381 168.409ZM189.151 195.882C178.914 197.778 169.771 203 162.368 211.18C157.186 216.905 154.318 222.571 149.483 236.64C138.135 269.655 133.913 281.289 131.882 285.137C127.121 294.157 117.551 302.076 106.824 305.871L101.314 307.821L66.0271 308.034L30.74 308.248L31.0184 349.468C31.2656 386.165 31.4328 391.154 32.5399 394.937C38.3584 414.819 55.1729 429.084 74.434 430.482L80.1385 430.896L81.7238 424.957C88.1295 400.97 108.916 380.863 133.899 374.49C161.132 367.543 191.557 378.28 208.668 400.876C213.287 406.976 218.563 417.516 220.675 424.862L222.355 430.705H353.951H485.547L486.347 427.695C489.303 416.566 493.522 408.003 500.106 399.776C527.138 365.995 576.758 363.082 607.13 393.493C616.394 402.768 621.867 411.877 625.661 424.338L627.599 430.705H642.416H657.232L656.797 418.487C656.121 399.514 653.736 388.198 647.33 373.573C641.366 359.957 634.033 349.625 622.43 338.489C607.486 324.148 590.419 315.162 568.606 310.149L561.751 308.573L399.182 308.197C248.922 307.849 236.451 307.731 234.487 306.635C231.357 304.89 204.602 277.702 203.719 275.371C202.584 272.37 202.836 267.799 204.32 264.534C206.88 258.897 213.185 255.962 219.764 257.345C222.863 257.996 224.16 259.051 234.915 269.668L246.678 281.278L351.973 281.251C411.936 281.236 457.267 280.957 457.267 280.603C457.267 280.261 452.546 273.656 446.776 265.924C441.006 258.193 429.233 242.418 420.616 230.869C403.625 208.098 400.396 204.744 391.035 200.143C380.287 194.861 388.061 195.234 285.843 195.092C213.293 194.991 193.073 195.156 189.151 195.882ZM145.701 400.318C127.503 402.617 111.883 416.574 107.73 434.246C106.327 440.218 106.332 450.254 107.74 455.69C111.517 470.264 122.935 482.378 137.386 487.144C142.246 488.747 144.335 489.031 151.254 489.031C158.173 489.031 160.262 488.747 165.122 487.144C179.963 482.25 191.941 469.089 195.087 454.22C196.177 449.067 196.065 439.716 194.852 434.6C189.579 412.364 168.229 397.472 145.701 400.318ZM550.882 400.304C537.428 402.048 525.319 410.002 518.314 421.699C510.396 434.919 509.764 450.755 516.597 464.702C520.08 471.814 529.215 481.073 535.936 484.305C543.808 488.092 548.16 489.082 556.793 489.052C566.163 489.019 573.304 486.988 580.389 482.341C592.772 474.217 600.099 461.797 600.874 447.613C602.415 419.41 578.45 396.731 550.882 400.304Z" fill="url(#paint0_linear_2767_40187)"/>
<defs>
<linearGradient id="paint0_linear_2767_40187" x1="-121.8" y1="592.56" x2="224.167" y2="-97.0973" gradientUnits="userSpaceOnUse">
<stop stop-color="#3E4EB0"/>
<stop offset="1" stop-color="#164E47"/>
</linearGradient>
</defs>
</svg>
