<svg width="220" height="220" viewBox="0 0 220 220" fill="none" xmlns="http://www.w3.org/2000/svg">
<path fill-rule="evenodd" clip-rule="evenodd" d="M11.6566 36.004C11.2355 36.6863 24.8798 49.7798 81.9543 103.466C90.8394 111.823 98.8041 118.586 100.861 119.52C105.625 121.684 114.375 121.684 119.139 119.52C121.196 118.586 129.161 111.823 138.046 103.466C195.12 49.7798 208.765 36.6863 208.343 36.004C207.711 34.9804 12.2891 34.9804 11.6566 36.004ZM0.535391 46.8699C0.240625 47.6373 0 75.8265 0 109.512C0 166.654 0.254375 174.453 2.19828 176.881C2.41828 177.156 76.7748 121.972 78.815 120.02C79.6177 119.251 70.9827 110.663 41.0876 82.4996C19.7648 62.4117 2.03844 45.8627 1.69469 45.7252C1.3518 45.5869 0.830156 46.1016 0.535391 46.8699ZM179.467 81.9066C158.355 101.848 141.019 118.55 140.943 119.023C140.809 119.846 217.34 177.458 217.802 176.881C219.746 174.453 220 166.653 220 109.512C220 75.8265 219.765 47.6537 219.478 46.906C219.191 46.1583 218.708 45.5697 218.404 45.598C218.1 45.6264 200.578 61.9657 179.467 81.9066ZM48.2797 154.848C21.6846 174.716 10.5351 183.517 11.3266 184.02C12.8098 184.96 207.191 184.959 208.673 184.019C209.467 183.517 198.231 174.668 171.412 154.672L133.015 126.043L130.746 127.527C124.584 131.554 118.948 133.516 112.463 133.892C104.297 134.365 98.6296 133.061 92.3149 129.258C89.638 127.647 87.2051 126.343 86.9077 126.361C86.6104 126.38 69.2278 139.199 48.2797 154.848Z" fill="white"/>
</svg>
