<svg width="683" height="136" viewBox="0 0 683 136" fill="none" xmlns="http://www.w3.org/2000/svg">
<path fill-rule="evenodd" clip-rule="evenodd" d="M607.097 84.0283V85.6949V99.2267V100.336V102.555V124.83V132.325L604.459 136H611.833H623.13H632.939L630.775 132.325H630.708V103.111L632.128 99.0868H627.054H628.677H630.64C631.112 93.189 635.983 88.4706 641.8 88.4706C647.754 88.4706 652.558 93.189 653.031 99.0868H654.993H656.685H651.543L652.964 103.111V132.325H652.896L650.326 136H660.406H671.297H678.739L676.641 132.325V124.83V102.555V100.336V99.2267V85.6949V84.0283V79.2419V78.6162L682.797 73.6898H683V73.4809V73.2041H676.641V68.4161V67.0999V65.9885V65.226H607.097V65.9885V67.0999V68.4161V73.2041H600.67V73.3441V73.6898H601.008L607.097 78.6162V79.2419V84.0283Z" fill="black" fill-opacity="0.15"/>
<path fill-rule="evenodd" clip-rule="evenodd" d="M605.134 94.4379V102.07V102.695V103.319H604.662V116.086V116.918V121.708V122.539V133.989V135.446V135.999H523.28V135.446V133.989V122.539V121.708V116.918V116.086V103.318H522.399V102.695V102.069V94.4372V93.397H523.549V86.2494V68.901V67.7912V52.2487V51.1357V19.2889H521.926V17.2061H525.173V14.084H526.324V13.1142H526.661L527.947 10.7547L529.3 8.25585L530.585 10.7547L531.872 13.1142H532.21V14.084H551.422V17.2061H554.737V19.2889H552.911V51.1357V52.2487V53.0816H560.893L562.18 43.1568L562.45 40.5212V26.366H560.286V24.6298H562.45V22.7559H564.277V24.6298H566.441V26.366H564.277V40.1739L564.683 43.156L565.968 53.0808H574.965V52.2479V51.1349V19.2881H573.341V17.2054H576.589V14.0832H595.396V13.1134H595.734L597.02 10.7539L598.305 8.25507L599.657 10.7539L600.876 13.1134H601.281V14.0832H602.839V17.2054H606.152V19.2881H604.327V51.1349V52.2479V67.7904V68.9002V86.2486V93.3962H605.137V94.4379H605.134ZM574.963 56.2045H565.898V62.0342L566.439 62.9336L569.551 67.932H574.963V67.792V56.2045ZM560.891 56.2045H552.908V67.792V67.932H557.239L560.283 62.9336L560.891 62.0342V56.2045ZM573.542 81.7391C573.272 76.7431 569.483 72.7888 564.68 72.4423C569.483 72.788 573.272 76.8127 573.542 81.7391ZM528.421 68.6257H548.039V67.7928V53.36H528.421V67.7928V68.6257ZM535.455 55.7892C534.78 55.7892 534.171 56.2045 534.171 56.6886V67.0287H536.741V56.6886C536.74 56.2045 536.2 55.7892 535.455 55.7892ZM540.529 55.7892C539.853 55.7892 539.244 56.2045 539.244 56.6886V67.0287H541.814V56.6886C541.814 56.2045 541.273 55.7892 540.529 55.7892ZM532.546 73.6905H529.908V70.9845H532.546V73.6905ZM546.415 73.6905H543.709V70.9845H546.415V73.6905ZM586.869 55.7892C586.193 55.7892 585.585 56.2045 585.585 56.6886V67.0287H588.156V56.6886C588.155 56.2045 587.613 55.7892 586.869 55.7892ZM591.944 55.7892C591.266 55.7892 590.725 56.2045 590.725 56.6886V67.0287H593.229V56.6886C593.229 56.2045 592.688 55.7892 591.944 55.7892ZM583.961 73.6905H581.321V70.9845H583.961V73.6905ZM597.83 73.6905H595.191V70.9845H597.83V73.6905ZM528.216 133.989H530.042V115.67C530.042 110.05 538.093 105.47 538.093 105.47C538.093 105.47 546.144 110.05 546.144 115.67V133.989H548.782V122.539V121.708V116.918V116.086V103.318H528.216V116.085V116.918V121.707V122.539V133.989ZM553.721 133.989H555.817V115.67C555.817 110.05 563.869 105.47 563.869 105.47C563.869 105.47 571.919 110.05 571.919 115.67V133.989H574.22V122.539V121.708V116.918V116.086V103.318H553.721V116.085V116.918V121.707V122.539V133.989ZM579.225 133.989H581.525V115.67C581.525 110.05 589.576 105.47 589.576 105.47C589.576 105.47 597.626 110.05 597.626 115.67V133.989H599.655V122.539V121.708V116.918V116.086V103.318H579.225V116.085V116.918V121.707V122.539L579.225 133.989Z" fill="black" fill-opacity="0.15"/>
<path fill-rule="evenodd" clip-rule="evenodd" d="M464.624 22.5517L465.707 32.959L501.628 28.9351L500.547 18.527L464.624 22.5517ZM493.241 117.544C474.501 117.544 458.332 125.177 451.772 136H534.846C528.148 125.177 512.048 117.544 493.241 117.544ZM509.205 89.4418L471.051 93.7449L471.253 96.1037L509.476 91.8014L509.205 89.4418ZM494.458 2.08116L466.992 5.13445L466.789 3.05408L494.256 0L494.458 2.08116ZM501.29 14.9873L463.068 19.22L463.338 21.6484L501.493 17.3461L501.29 14.9873ZM502.847 29.8361L464.692 34.1392L464.894 36.5692L503.118 32.2661L502.847 29.8361ZM504.403 44.7553L466.247 49.0576L466.518 51.4164L504.673 47.1853L504.403 44.7553ZM506.026 59.6057L467.804 63.9065L468.142 66.3349L506.297 62.0341L506.026 59.6057ZM507.582 74.5226L469.428 78.8257L469.698 81.2541L507.852 76.9494L507.582 74.5226ZM470.577 17.6933L469.292 5.76012L492.361 3.19172L493.646 15.1249L470.577 17.6933ZM486.272 9.0895L486.679 13.3222L490.67 12.9069L490.263 8.67342C490.127 7.4948 489.114 6.5915 488.032 6.72993C486.949 6.86914 486.136 7.91011 486.272 9.0895ZM472.539 10.6865L473.013 14.9177L477.004 14.432L476.531 10.2009C476.394 9.01989 475.38 8.18774 474.298 8.32617C473.216 8.39578 472.404 9.43518 472.539 10.6865ZM479.372 9.92165L479.845 14.1551L483.836 13.6694L483.363 9.43597C483.295 8.25735 482.281 7.35403 481.13 7.56441C480.048 7.63402 479.304 8.67343 479.372 9.92165ZM496.827 21.0266L497.569 27.8934L499.938 27.6165L499.194 20.7474C499.125 20.1921 498.585 19.776 497.909 19.8441C497.231 19.9137 496.759 20.4009 496.827 21.0266ZM473.621 84.5147L474.433 91.3853L476.734 91.1069L475.99 84.2378C475.922 83.6817 475.381 83.2672 474.704 83.3353C474.096 83.4745 473.621 83.9609 473.621 84.5147ZM476.937 84.0978L477.68 91.0389L480.047 90.7597L479.303 83.8913C479.236 83.3353 478.694 82.92 478.019 82.9896C477.343 83.0584 476.869 83.6145 476.937 84.0978ZM480.251 83.8209L480.995 90.6228L483.296 90.4132L482.619 83.4745C482.551 82.9192 481.943 82.5711 481.266 82.6415C480.658 82.7119 480.184 83.1984 480.251 83.8209ZM483.498 83.4049L484.244 90.2716L486.611 89.9948L485.866 83.128C485.798 82.5704 485.257 82.2239 484.582 82.2239C483.904 82.3639 483.432 82.8511 483.498 83.4049ZM486.814 82.9888L487.558 89.926L489.858 89.6491L489.182 82.7815C489.115 82.2247 488.505 81.8086 487.896 81.8782C487.22 81.9478 486.746 82.5008 486.814 82.9888ZM490.061 82.7119L490.805 89.5099L493.173 89.3018L492.496 82.3631C492.428 81.8078 491.821 81.4621 491.143 81.531C490.467 81.6006 489.993 82.0855 490.061 82.7119ZM493.376 82.2943L494.119 89.1634L496.487 88.8865L495.744 82.0855C495.677 81.4621 495.067 81.1149 494.459 81.1149C493.781 81.2541 493.308 81.739 493.376 82.2943ZM496.691 81.9478L497.367 88.8162L499.803 88.5401L499.058 81.6686C498.99 81.1149 498.381 80.6996 497.705 80.7692C497.096 80.838 496.622 81.3918 496.691 81.9478ZM499.938 81.6006L500.682 88.4705L503.05 88.1936L502.306 81.3229C502.238 80.7692 501.629 80.3531 501.02 80.4235C500.41 80.4923 499.87 80.9765 499.938 81.6006ZM503.253 81.1853L503.929 88.0536L506.363 87.7752L505.62 80.9765C505.553 80.3524 505.01 80.0059 504.335 80.0059C503.659 80.1459 503.185 80.6292 503.253 81.1853ZM472.066 69.4578L472.743 76.3269L475.178 76.0501L474.434 69.1786C474.366 68.6256 473.825 68.2784 473.149 68.2784C472.471 68.4168 471.999 68.9017 472.066 69.4578ZM475.313 69.1113L476.125 75.9796L478.425 75.7028L477.681 68.8321C477.613 68.2784 477.072 67.8631 476.395 67.9327C475.787 68 475.313 68.5552 475.313 69.1113ZM478.628 68.7625L479.372 75.634L481.74 75.3563L480.995 68.416C480.928 67.9319 480.388 67.5158 479.711 67.5855C479.034 67.6543 478.56 68.1399 478.628 68.7625ZM481.875 68.3488L482.686 75.2171L484.986 75.0106L484.311 68.1399C484.176 67.5158 483.634 67.1694 482.958 67.1694C482.348 67.307 481.875 67.7927 481.875 68.3488ZM485.189 68L485.935 74.8707L488.302 74.5906L487.557 67.7231C487.489 67.1694 486.948 66.7517 486.271 66.8198C485.596 66.8886 485.122 67.4462 485.189 68ZM488.505 67.6543L489.249 74.5226L491.549 74.2442L490.873 67.307C490.805 66.8198 490.195 66.4037 489.587 66.4741C488.91 66.5429 488.437 67.0286 488.505 67.6543ZM491.752 67.239L492.496 74.1066L494.865 73.8977L494.119 67.0286C494.119 66.4029 493.512 66.0564 492.834 66.0564C492.158 66.1964 491.686 66.6821 491.752 67.239ZM495.067 66.8886L495.812 73.7593L498.112 73.4817L497.435 66.6117C497.368 66.0564 496.759 65.6404 496.15 65.7804C495.473 65.7796 494.999 66.3349 495.067 66.8886ZM498.381 66.5429L499.058 73.4136L501.493 73.1352L500.75 66.1965C500.682 65.7108 500.073 65.2947 499.397 65.3643C498.787 65.4339 498.247 65.9196 498.381 66.5429ZM501.629 66.126L502.373 72.9983L504.741 72.7879L503.997 65.9196C503.929 65.2939 503.32 64.9482 502.711 64.9482C502.103 65.0867 501.56 65.5723 501.629 66.126ZM470.442 54.4009L471.186 61.27L473.553 61.0612L472.81 54.124C472.743 53.5664 472.202 53.2199 471.525 53.2895C470.915 53.3599 470.375 53.8456 470.442 54.4009ZM473.756 54.0521L474.434 60.9228L476.869 60.6451L476.125 53.7752C476.057 53.2199 475.449 52.8039 474.839 52.8742C474.163 52.9431 473.69 53.4968 473.756 54.0521ZM477.004 53.7064L477.747 60.5755L480.116 60.2987L479.372 53.4295C479.304 52.8743 478.763 52.4582 478.087 52.5278C477.477 52.5974 477.004 53.0831 477.004 53.7064ZM480.319 53.2895L481.063 60.1602L483.431 59.9514L482.685 53.0831C482.618 52.4574 482.077 52.1117 481.4 52.1805C480.726 52.2501 480.251 52.7343 480.319 53.2895ZM483.567 52.9431L484.379 59.8122L486.68 59.5354L486.002 52.6654C485.867 52.1109 485.326 51.6941 484.649 51.7637C484.041 51.8341 483.567 52.3878 483.567 52.9431ZM486.882 52.5974L487.625 59.4657L489.993 59.1873L489.25 52.3205C489.182 51.7645 488.64 51.3468 487.965 51.4172C487.287 51.486 486.814 52.0413 486.882 52.5974ZM490.196 52.2502L490.941 59.0481L493.241 58.8409L492.565 51.9733C492.497 51.346 491.889 51.0004 491.211 51.07C490.602 51.1372 490.128 51.6253 490.196 52.2502ZM493.443 51.8341L494.188 58.7009L496.555 58.424L495.812 51.5572C495.812 50.9996 495.202 50.5827 494.526 50.7227C493.849 50.7908 493.376 51.2764 493.443 51.8341ZM496.759 51.486L497.502 58.3552L499.803 58.0783L499.125 51.2076C499.058 50.6539 498.449 50.2378 497.84 50.3074C497.164 50.3747 496.691 50.9307 496.759 51.486ZM500.005 51.1372L500.75 57.9391L503.185 57.7319L502.441 50.8604C502.373 50.237 501.765 49.8914 501.088 49.961C500.41 50.0282 499.938 50.5147 500.005 51.1372ZM468.887 39.4129L469.563 46.2108L471.931 46.0036L471.187 39.0664C471.187 38.5087 470.578 38.1631 469.969 38.2303C469.293 38.3007 468.751 38.7887 468.887 39.4129ZM472.134 38.9976L472.878 45.8643L475.246 45.5883L474.5 38.7887C474.433 38.1639 473.892 37.8174 473.215 37.8174C472.606 37.9542 472.066 38.4399 472.134 38.9976ZM475.449 38.5815L476.125 45.5186L478.56 45.241L477.748 38.3703C477.748 37.8166 477.14 37.4005 476.532 37.5382C475.854 37.5382 475.381 38.0942 475.449 38.5815ZM478.695 38.3007L479.441 45.1722L481.808 44.8953L481.063 37.9542C480.995 37.4686 480.455 37.0548 479.779 37.1229C479.169 37.1917 478.695 37.6782 478.695 38.3007ZM482.01 37.8846L482.754 44.7553L485.122 44.4793L484.379 37.6782C484.311 37.0548 483.769 36.7076 483.093 36.7076C482.416 36.8452 481.943 37.3309 482.01 37.8846ZM485.257 37.5382L486.069 44.4096L488.37 44.132L487.693 37.2605C487.558 36.7068 487.017 36.2915 486.339 36.4292C485.731 36.4292 485.257 36.9845 485.257 37.5382ZM488.573 37.1917L489.317 44.0632L491.686 43.784L490.94 36.9148C490.873 36.3596 490.331 35.945 489.654 36.0131C488.977 36.0827 488.505 36.5692 488.573 37.1917ZM491.887 36.7748L492.631 43.644L494.931 43.3663L494.255 36.5692C494.118 35.945 493.578 35.5947 492.901 35.5947C492.293 35.7339 491.82 36.2211 491.887 36.7748ZM495.134 36.4292L495.879 43.296L498.247 43.0199L497.502 36.1515C497.434 35.5939 496.894 35.1786 496.217 35.3178C495.541 35.3178 495.067 35.8715 495.134 36.4292ZM498.45 36.0827L499.194 42.9503L501.494 42.6734L500.818 35.8043C500.75 35.249 500.14 34.8329 499.532 34.9033C498.856 34.9721 498.381 35.4578 498.45 36.0827ZM467.262 24.3552L468.008 31.2267L470.375 30.9483L469.63 24.0095C469.563 23.5238 468.955 23.1078 468.278 23.1766C467.669 23.2462 467.195 23.7326 467.262 24.3552ZM470.577 23.9383L471.253 30.8098L473.621 30.5986L472.878 23.7319C472.878 23.1062 472.269 22.7574 471.659 22.7574C470.983 22.8974 470.442 23.3846 470.577 23.9383ZM473.824 23.5927L474.568 30.4602L476.937 30.1833L476.192 23.315C476.125 22.7574 475.584 22.3421 474.906 22.4813C474.231 22.4813 473.756 23.0389 473.824 23.5927ZM477.14 23.2462L477.816 30.1137L480.251 29.8369L479.44 22.9662C479.44 22.4125 478.83 21.9964 478.221 22.0668C477.544 22.1356 477.004 22.6197 477.14 23.2462ZM480.388 22.8278L481.131 29.6969L483.498 29.4896L482.754 22.6189C482.686 21.9948 482.145 21.6484 481.468 21.6484C480.86 21.7884 480.388 22.2725 480.388 22.8278ZM483.702 22.4813L484.446 29.3504L486.814 29.0743L486.07 22.2029C486.002 21.6492 485.461 21.2331 484.784 21.3723C484.108 21.3723 483.634 21.926 483.702 22.4813ZM486.949 22.1356L487.693 29.0047L490.061 28.7279L489.317 21.8572C489.25 21.3035 488.708 20.8874 488.032 20.957C487.423 21.0266 486.949 21.5099 486.949 22.1356ZM490.263 21.718L491.008 28.5871L493.376 28.3806L492.631 21.5092C492.563 20.8858 492.023 20.5401 491.345 20.609C490.67 20.6794 490.196 21.1635 490.263 21.718ZM493.511 21.3723L494.323 28.2414L496.621 27.9638L495.946 21.0939C495.811 20.5409 495.269 20.1225 494.593 20.2601C493.984 20.2594 493.511 20.817 493.511 21.3723ZM466.18 37.4686L467.262 47.8086L503.185 43.784L502.103 33.4455L466.18 37.4686ZM467.736 52.3878L468.887 62.7278L504.809 58.7016L503.659 48.3639L467.736 52.3878ZM469.36 67.307L470.442 77.6471L506.363 73.6216L505.281 63.2824L469.36 67.307ZM470.915 82.1543L472.065 92.5647L507.919 88.5401L506.838 78.132L470.915 82.1543ZM472.539 97.0743L474.84 119.002C475.381 118.86 475.922 118.723 476.532 118.515L474.772 102.486C474.637 100.892 475.99 99.5035 477.885 99.2266C479.779 99.017 481.402 100.126 481.538 101.793L483.161 117.198C483.769 117.127 484.311 117.058 484.92 116.988L483.297 101.585C483.162 99.9884 484.514 98.5329 486.341 98.3233C488.168 98.1129 489.859 99.2259 489.994 100.822L491.687 116.504C492.227 116.434 492.768 116.434 493.241 116.434H493.444L491.753 100.612C491.618 99.017 492.971 97.56 494.797 97.3504C496.692 97.1423 498.315 98.2537 498.518 99.8484L500.276 116.781C500.885 116.85 501.494 116.918 502.103 116.988L500.276 99.6411C500.073 98.1129 501.494 96.5878 503.321 96.3798C505.147 96.1725 506.84 97.2815 506.975 98.9458L509.071 118.306C509.748 118.443 510.492 118.652 511.168 118.86L508.462 93.0504L472.539 97.0743Z" fill="black" fill-opacity="0.15"/>
<path fill-rule="evenodd" clip-rule="evenodd" d="M94.4535 29.3737V38.2488H95.5497V39.8762H95.1844C126.26 60.0033 108.833 66.252 112.488 70.252C106.518 70.1252 100.546 70.1252 94.4535 70.252H76.17C78.486 65.8758 60.4511 60.1259 92.6238 39.8762H92.257V38.2488H93.356V29.874C93.1129 29.874 92.8697 29.874 92.6238 29.874C91.2831 29.874 90.0661 28.999 89.577 27.6238C90.1869 28.2508 90.9191 28.4988 91.7721 28.4988C93.5991 28.4988 95.1844 26.9997 95.1844 25.1229C95.1844 24.7453 95.0621 24.248 94.9412 24C95.6706 24.6228 96.036 25.4963 96.036 26.3755C96.036 27.6238 95.4261 28.7482 94.4535 29.3737ZM33.7593 78.0014C34.1233 77.2532 31.2002 76.374 36.5602 73.0009C41.6799 76.374 38.8776 77.3786 39.4861 78.0014C37.5355 78.0014 35.7099 78.0014 33.7593 78.0014ZM33.5162 83.7513H39.3639V80.4981H33.5162V83.7513ZM34.6124 83.0032H35.7099V81.1236H34.6124V83.0032ZM37.2924 83.0032H38.2677V81.1236H37.2924V83.0032ZM35.9531 83.0032H36.927V81.1236H35.9531V83.0032ZM32.7826 80.1261H40.2197V79.5019H32.7826V80.1261ZM32.7826 79.0031H40.2197V78.3761H32.7826V79.0031ZM32.7826 84.7489H40.2197V84.2501H32.7826V84.7489ZM32.7826 85.4999H40.2197V85.0011H32.7826V85.4999ZM33.3939 85.6253H39.4861V101.128H33.3939V85.6253ZM39.4861 102.13V115.505H33.3939V102.13H39.4861ZM39.4861 116.503V124.756H46.6759V86.5045L58.7423 84.0022V124.758H59.2286V77.2547H60.8151V76.7517H74.9529V72.3754H112.978V76.002V76.7502H127.6V77.2532H128.82V124.756H129.551V83.3752L141.25 86.7539V124.756H149.172V116.503H155.144V124.756H165.99V111.38H175.742V124.756H188.169V128.128H0V124.756H12.7971V111.38H22.6683V124.756H33.3939V116.503H39.4861ZM22.1807 48.747C21.5707 47.6255 26.325 46.2518 17.6709 40.878C9.26264 46.125 13.8933 47.7495 12.918 48.747C15.9648 48.747 19.1339 48.747 22.1807 48.747ZM22.4265 58.1237H13.0402V52.8711H22.4265V58.1237ZM20.7177 57.0008H19.1338V54.0011H20.7177V57.0008ZM16.3302 57.0008H14.7463V54.0011H16.3302V57.0008ZM18.5253 57.0008H16.9401V54.0011H18.5253V57.0008ZM23.8854 52.6245H11.6995V51.2508H23.8854V52.6245ZM23.8854 50.6266H11.6995V49.3782H23.8854V50.6266ZM23.8854 59.751H11.6995V58.5027H23.8854V59.751ZM23.8854 61.0008H11.6995V60.1258H23.8854V61.0008ZM188.169 136H0V129.254H188.169V136ZM22.6697 61.2516H12.7985V86.3748H22.6697V61.2516ZM166.358 48.747C167.088 47.6255 162.214 46.2518 170.989 40.878C179.394 46.125 174.765 47.7495 175.742 48.747C172.574 48.747 169.525 48.747 166.358 48.747ZM175.621 58.1237V52.8711H176.962V51.2508H164.772V52.8711H166.114V58.1237H164.772V59.6256V59.751V61.2502H165.99V86.3735H175.742V61.2502H176.962V59.751V59.6256V58.1237H175.621ZM167.942 57.0008H169.525V54.0011H167.942V57.0008ZM172.209 57.0008H173.912V54.0011H172.209V57.0008ZM170.133 57.0008H171.721V54.0011H170.133V57.0008ZM164.772 50.9986H176.962V49.3782H164.772V50.9986ZM175.742 88.0036V109.626H165.99V88.0036H175.742ZM77.269 124.756H110.784V79.3765H77.269V124.756ZM154.902 78.0014C154.537 77.2532 157.46 76.374 152.1 73.0009C146.858 76.374 149.782 77.3786 149.175 78.0014C151.122 78.0014 152.95 78.0014 154.902 78.0014ZM155.145 83.7513H149.296V80.4981H155.145V83.7513ZM153.925 83.0032H152.95V81.1236H153.925V83.0032ZM151.366 83.0032H150.394V81.1236H151.366V83.0032ZM152.586 83.0032H151.611V81.1236H152.586V83.0032ZM155.874 80.2515H148.443V79.5019H155.874V80.2515ZM155.874 79.0031H148.443V78.3761H155.874V79.0031ZM155.874 84.7489H148.443V84.1261H155.874V84.7489ZM155.874 85.6253H155.145V101.128H149.174V85.6253H148.443V85.0025H155.874V85.6253ZM149.174 102.13V115.505H155.145V102.13H149.174ZM12.7985 88.0036V109.626H22.6697V88.0036H12.7985ZM55.4523 111.753V121.003L49.2392 121.128V112.503C49.2392 110.878 52.1624 108.252 52.2846 108.252C52.4055 108.252 55.4523 110.129 55.4523 111.753ZM55.4523 96.2531V105.379L49.2392 106.129V97.0012C49.2392 95.2485 52.1624 92.6264 52.2846 92.6264C52.4055 92.501 55.4523 94.3764 55.4523 96.2531ZM133.085 111.753V121.003L139.301 121.128V112.503C139.301 110.878 136.256 108.252 136.135 108.252C136.011 108.252 133.085 110.129 133.085 111.753ZM133.085 96.2531V105.379L139.301 106.129V97.0012C139.301 95.2485 136.256 92.6264 136.135 92.6264C136.011 92.501 133.085 94.3764 133.085 96.2531ZM114.803 76.002C115.538 74.6269 109.685 73.0023 120.412 66.3746H120.291H119.926V65.8758H120.291V63.6257C120.17 63.6257 120.046 63.6257 119.926 63.6257C119.559 63.6257 119.071 63.2509 118.949 62.8733C119.071 62.9987 119.436 63.1242 119.684 63.1242C120.291 63.1242 120.777 62.6254 120.777 62.1224C120.777 62.0012 120.777 61.8758 120.658 61.7504C120.901 61.8758 121.022 62.1223 121.022 62.4985C121.022 62.8733 120.901 63.1227 120.658 63.3778V65.8744H120.901V66.3732H120.658H120.413C130.65 72.753 125.288 74.7509 126.262 76.0007L114.803 76.002ZM97.1336 98.251V105.379H104.204V98.003C104.204 93.7536 94.5758 88.0036 94.0868 88.0036C93.5991 88.0036 83.9711 93.7536 83.9711 98.003V105.379H90.9191V98.251C90.9191 97.0013 93.8436 95.2485 94.0868 95.2485C94.2063 95.2499 97.1336 97.0027 97.1336 98.251ZM97.1336 114.124V121.128H90.9178V114.124C90.9178 112.749 93.8423 111.004 94.0854 111.004C94.2063 111.004 97.1336 112.751 97.1336 114.124ZM104.204 107.88H83.9711V121.128H81.0479V83.1286H107.006V121.128H104.204V107.88ZM64.9595 99.8756H67.3978V104.625H64.9595V99.8756ZM64.9595 116.376H67.3978V121.128H64.9595V116.376ZM120.898 116.376H123.335V121.128H120.898V116.376ZM120.898 99.8756H123.335V104.625H120.898V99.8756ZM62.7657 79.7499H64.9595V83.1286H62.7657V79.7499ZM123.702 79.7499H126.016V83.1286H123.702V79.7499ZM120.045 79.7499H122.239V83.1286H120.045V79.7499ZM116.266 79.7499H118.461V83.1286H116.266V79.7499ZM70.3209 79.7499H72.516V83.1286H70.3209V79.7499ZM66.5433 79.7499H68.7371V83.1286H66.5433V79.7499ZM117.61 107.502H121.019C120.29 107.88 119.557 108.503 119.192 108.751C118.461 109.375 117.487 110.505 117.487 111.628V121.629H126.872V111.628C126.872 110.505 125.775 109.375 125.042 108.751C124.799 108.503 123.945 107.88 123.214 107.502H126.872V106.505H117.61V107.502ZM61.5459 90.5003H65.6903C64.9595 90.8779 63.6188 92.0022 63.2534 92.253C62.5199 92.8786 61.4237 94.0002 61.4237 95.1274V105.125H70.8086V95.1274C70.8086 94.0002 69.7124 92.8786 68.9802 92.253C68.6148 91.8768 67.3977 90.8765 66.5433 90.5003H70.81V89.5028H61.5473V90.5003H61.5459ZM61.5459 107.502H65.0804C64.3482 107.88 63.4965 108.503 63.2534 108.751C62.5199 109.375 61.4237 110.505 61.4237 111.628V121.629H70.8086V111.628C70.8086 110.505 69.8347 109.375 68.9802 108.751C68.7371 108.503 68.0063 107.88 67.2755 107.502H70.81V106.505H61.5473V107.502H61.5459ZM117.365 90.5003H121.753C120.898 90.8779 119.557 91.8768 119.313 92.253C118.461 92.8786 117.487 94.0002 117.487 95.1274V105.125H126.872V95.1274C126.872 94.0002 125.775 92.8786 125.042 92.253C124.677 92.0022 123.336 90.8765 122.606 90.5003H126.505V89.5028H117.365V90.5003ZM68.1258 61.7504C68.3717 61.8758 68.4926 62.1223 68.4926 62.4985C68.4926 62.8733 68.3717 63.1227 68.1258 63.3778V65.8744H68.4926V66.3732H68.1258H67.8827H67.7618H67.3964V65.8744H67.7618V63.6243C67.6395 63.6243 67.5173 63.6243 67.3964 63.6243C67.0296 63.6243 66.6642 63.2495 66.4197 62.8719C66.6656 62.9973 66.9073 63.1227 67.1518 63.1227C67.7618 63.1227 68.248 62.6239 68.248 62.1209C68.2494 62.0012 68.2494 61.8758 68.1258 61.7504ZM67.884 66.3732C78.1206 72.753 72.8814 74.7509 73.7331 76.0007H62.2767C63.1311 74.6269 57.1584 73.0024 67.884 66.3732Z" fill="#1C1C1C" fill-opacity="0.15"/>
</svg>
