<svg width="24" height="24" viewBox="0 0 24 24" fill="none" xmlns="http://www.w3.org/2000/svg">
<path fill-rule="evenodd" clip-rule="evenodd" d="M0 10.6667C0 5.63835 -1.58946e-07 3.1242 1.56209 1.56209C3.1242 -1.58946e-07 5.63835 0 10.6667 0H13.3333C18.3616 0 20.8759 -1.58946e-07 22.4379 1.56209C24 3.1242 24 5.63835 24 10.6667V13.3333C24 18.3616 24 20.8759 22.4379 22.4379C20.8759 24 18.3616 24 13.3333 24H10.6667C5.63835 24 3.1242 24 1.56209 22.4379C-1.58946e-07 20.8759 0 18.3616 0 13.3333V10.6667ZM20 6C20 7.10457 19.1045 8 18 8C16.8955 8 16 7.10457 16 6C16 4.89543 16.8955 4 18 4C19.1045 4 20 4.89543 20 6ZM14.6667 13.3333C14.6667 14.8061 13.4728 16 12 16C10.5272 16 9.33333 14.8061 9.33333 13.3333C9.33333 11.8605 10.5272 10.6667 12 10.6667C13.4728 10.6667 14.6667 11.8605 14.6667 13.3333ZM17.3333 13.3333C17.3333 16.2788 14.9455 18.6667 12 18.6667C9.05448 18.6667 6.66667 16.2788 6.66667 13.3333C6.66667 10.3879 9.05448 8 12 8C14.9455 8 17.3333 10.3879 17.3333 13.3333Z" fill="#FAEEF2"/>
</svg>
