<svg width="220" height="220" viewBox="0 0 220 220" fill="none" xmlns="http://www.w3.org/2000/svg">
<path fill-rule="evenodd" clip-rule="evenodd" d="M104.63 0.251831C86.8756 1.99593 72.4196 8.76222 60.1572 21.0676C53.018 28.2322 48.2106 35.3569 44.6825 44.0009C37.1939 62.3498 37.3786 81.9921 45.2088 99.9019C47.1407 104.321 48.5685 106.688 61.3866 126.718C67.8005 136.741 73.0478 145.069 73.0478 145.225C73.0478 145.382 71.5491 145.741 69.7178 146.025C54.1893 148.43 35.7737 154.853 26.4027 161.133C14.7186 168.963 10.6203 179.673 15.4444 189.772C20.7304 200.836 38.2384 210.208 63.3799 215.43C78.5646 218.584 90.8305 219.731 109.571 219.75C126.517 219.766 134.464 219.164 149.292 216.74C163.644 214.393 176.001 210.701 185.841 205.819C198.495 199.54 204.893 192.781 206.376 184.127C207.764 176.022 202.987 167.424 193.599 161.133C184.224 154.85 165.813 148.43 150.269 146.023C147.633 145.615 146.974 145.371 147.165 144.875C147.298 144.528 152.819 135.778 159.435 125.43C166.05 115.082 172.236 105.105 173.181 103.259C179.951 90.0389 182.288 74.6505 179.823 59.5393C176.196 37.3085 161.544 17.5983 141.009 7.3275C135.129 4.38585 128.702 2.32593 121.388 1.0373C117.889 0.420698 107.749 -0.054536 104.63 0.251831ZM101.837 13.5485C83.79 16.0682 67.1323 27.8859 58.7496 44.116C54.356 52.6226 51.9893 62.2957 51.9957 71.7183C52.0013 79.8141 54.4737 90.02 58.1467 97.109C59.1874 99.1178 66.404 110.719 74.1831 122.89C81.9621 135.061 93.1555 152.605 99.0564 161.877C104.958 171.148 109.883 178.735 110.001 178.737C110.254 178.741 158.981 102.407 161.01 98.829C166.523 89.1086 169.028 75.9065 167.541 64.4136C164.927 44.2067 153.164 27.6689 135.155 18.8809C124.491 13.677 113.507 11.9191 101.837 13.5485ZM104.743 39.5154C101.559 40.0976 98.4789 41.2062 94.7471 43.1119C89.9487 45.5628 84.2528 51.2523 81.7718 56.0738C78.8108 61.8273 78.0013 65.1024 78.0013 71.3277C78.0013 77.553 78.8108 80.8281 81.7718 86.5816C84.2446 91.3868 89.9419 97.0841 94.7471 99.5569C100.501 102.518 103.776 103.327 110.001 103.327C116.226 103.327 119.501 102.518 125.255 99.5569C130.06 97.0841 135.757 91.3868 138.23 86.5816C141.191 80.8281 142.001 77.553 142.001 71.3277C142.001 65.1024 141.191 61.8273 138.23 56.0738C135.756 51.2652 130.059 45.5693 125.255 43.1016C120.15 40.4787 116.558 39.5034 111.29 39.3091C108.809 39.218 105.863 39.3109 104.743 39.5154ZM106.18 52.4567C96.4203 54.3731 89.3936 64.4209 91.0062 74.1542C92.4031 82.5834 98.7453 88.9256 107.174 90.3225C119.599 92.3811 131.054 80.9261 128.996 68.5012C127.181 57.5528 116.932 50.3452 106.18 52.4567ZM78.6338 157.558C60.9994 160.443 51.9119 162.783 42.8391 166.776C34.3386 170.516 27.7682 175.679 26.6171 179.521C23.8396 188.791 44.2506 199.481 73.9171 204.293C93.3433 207.444 116.788 207.929 136.904 205.597C166.602 202.153 190.56 192.564 193.434 182.97C194.235 180.297 193.345 178.21 189.986 174.887C181.995 166.978 164.14 160.681 140.724 157.513L139.005 157.28L126.944 176.287C118.307 189.898 114.478 195.567 113.453 196.259C112.472 196.922 111.387 197.226 110.001 197.226C108.615 197.226 107.53 196.922 106.549 196.259C105.525 195.568 101.688 189.891 93.0575 176.301C85.6042 164.564 80.7509 157.324 80.3525 157.346C79.998 157.366 79.2246 157.461 78.6338 157.558Z" fill="white"/>
</svg>
