<svg width="245" height="473" viewBox="0 0 245 473" fill="none" xmlns="http://www.w3.org/2000/svg">
<path fill-rule="evenodd" clip-rule="evenodd" d="M144.078 0.97962C137.256 2.30113 125.734 8.40065 120.129 13.6587C114.189 19.2313 108.639 28.2134 106.434 35.823C105.559 38.8423 104.341 41.6431 103.726 42.0463C101.167 43.7271 98.4221 42.6552 95.4724 38.8224C91.3735 33.4944 85.8008 29.1206 79.128 25.9955C74.2857 23.7278 72.3262 23.4184 62.6407 23.3884C52.2567 23.3565 51.2854 23.5322 45.0672 26.5674C36.5068 30.7466 29.1675 38.0398 24.9887 46.5199C21.8412 52.9059 21.6723 53.8082 21.6723 64.2485C21.6723 74.5731 21.8701 75.666 24.8978 82.051C29.1335 90.9852 36.7377 98.4312 45.5329 102.259C50.9077 104.598 52.1488 105.564 52.1488 107.411C52.1488 109.339 51.6232 109.684 48.6894 109.684C46.7859 109.684 42.751 108.758 39.7224 107.626C36.6937 106.494 32.6928 105.707 30.8322 105.879L27.4488 106.191L32.7547 117.419C35.6725 123.596 38.5523 128.648 39.1538 128.648C39.7563 128.648 41.3731 127.525 42.747 126.153C44.4477 124.454 46.3472 123.658 48.6964 123.658H52.1488V149.609V175.56H59.2313H66.3139L65.6534 179.802C64.6092 186.507 64.1455 187.501 61.8243 188.016C60.6252 188.283 53.4448 189.672 45.8686 191.105C33.0975 193.519 31.9164 193.594 29.6661 192.121C26.5295 190.068 25.2165 190.11 11.4851 192.692L0 194.852L0.653496 200.427C1.78562 210.083 0.535587 209.525 14.9035 206.785C25.9939 204.67 28.0204 203.971 31.121 201.193C34.2866 198.357 36.4239 197.653 51.1505 194.606C60.2185 192.73 67.7697 191.1 67.9336 190.983C68.0965 190.867 68.7839 187.462 69.4624 183.415L70.6955 176.059L134.366 175.802L198.036 175.545V132.634V89.7215H193.04C190.292 89.7215 188.044 89.4511 188.044 89.1197C188.044 88.7883 189.983 86.3629 192.355 83.7278C197.456 78.0615 202.395 68.3528 203.93 60.9767C211.348 25.3358 180.094 -5.99425 144.078 0.97962ZM164.062 25.9227C173.55 30.2126 179.041 38.7934 179.019 49.2977C178.984 66.643 163.367 78.1513 146.478 73.2775C138.735 71.0437 131.922 64.3194 129.646 56.6648C127.7 50.1201 127.704 48.4772 129.683 41.7439C131.551 35.3878 139.358 26.9807 145.085 25.1591C150.828 23.3325 159.067 23.6639 164.062 25.9227ZM148.645 32.4005C146.567 34.4776 146.665 36.1404 148.991 38.2435C150.47 39.5809 151.353 39.7357 152.87 38.9242C155.821 37.3472 156.268 35.0245 154.047 32.8057C151.661 30.4222 150.699 30.3503 148.645 32.4005ZM161.635 40.3854C159.679 42.3408 159.635 44.2042 161.509 45.7583C163.81 47.6657 167.511 46.6466 167.886 44.0026C168.513 39.5879 164.664 37.3611 161.635 40.3854ZM71.8246 44.34C78.9591 47.8913 82.4264 53.1584 82.941 61.2242C83.7334 73.6528 75.246 82.7347 62.8375 82.7347C44.9703 82.7347 35.7304 62.4449 47.4994 49.0551C53.9304 41.7389 63.0484 39.9722 71.8246 44.34ZM139.082 43.808C137.431 45.4569 137.247 46.2404 138.124 47.8793C139.748 50.9096 141.993 51.3248 144.3 49.0202C146.607 46.7165 146.191 44.4737 143.158 42.8518C141.517 41.9754 140.732 42.1591 139.082 43.808ZM58.0822 49.9135C57.1869 51.5824 57.2688 52.3439 58.4689 53.5427C61.3297 56.4013 65.7143 52.3958 63.1293 49.2847C61.3926 47.1936 59.4062 47.4412 58.0822 49.9135ZM69.1756 55.2385C67.2601 57.5441 68.3223 60.277 71.1341 60.277C72.7179 60.277 73.7291 59.6332 73.951 58.4824C74.2967 56.6877 72.557 53.7892 71.1341 53.7892C70.7195 53.7892 69.8381 54.441 69.1756 55.2385ZM159.733 54.4549C158.647 55.5389 158.972 59.2849 160.265 60.5764C163.496 63.8033 169.003 58.8267 166.086 55.3163C164.797 53.7642 160.946 53.2422 159.733 54.4549ZM144.648 57.3535C142.692 59.3088 142.648 61.1723 144.523 62.7264C146.823 64.6338 150.524 63.6147 150.9 60.9707C151.526 56.556 147.677 54.3292 144.648 57.3535ZM50.1873 58.7109C49.4049 60.1722 49.5448 61.0266 50.7678 62.2483C52.6034 64.0818 54.0523 63.8682 55.5172 61.5486C56.2326 60.4147 56.1447 59.4825 55.2164 58.3646C53.4458 56.2346 51.4403 56.3723 50.1873 58.7109ZM67.2112 67.6252C65.9002 70.0715 68.1464 73.3464 70.5126 72.4391C72.8158 71.5567 73.6002 69.0295 72.1224 67.2509C70.4437 65.2307 68.4112 65.3854 67.2112 67.6252ZM55.1924 69.2042C52.4935 72.4531 56.9601 76.3607 59.9538 73.3703C61.2258 72.0987 61.3567 71.3192 60.5183 69.9897C59.0594 67.6761 56.7462 67.3347 55.1924 69.2042ZM113.937 79.9899C115.548 82.3235 117.818 85.0873 118.981 86.1333C120.144 87.1793 121.096 88.414 121.096 88.8781C121.096 89.3423 115.663 89.7215 109.022 89.7215C102.381 89.7215 97.0971 89.3523 97.281 88.9011C100.634 80.6347 102.898 76.7839 104.608 76.4316C109.905 75.3396 111.019 75.7648 113.937 79.9899ZM231.213 92.2498L218.924 99.7028H208.98H199.035V118.667V137.631H209.032H219.029L232.014 145.581L245 153.531V119.131C245 100.211 244.662 84.7459 244.251 84.7639C243.839 84.7819 237.971 88.1505 231.213 92.2498ZM187.065 160.626C188.575 163.444 187.382 166.454 184.467 167.185C181.493 167.93 179.051 166.117 179.051 163.161C179.051 158.636 184.992 156.757 187.065 160.626ZM91.1187 187.537C91.1187 195.855 91.2666 196.52 93.1172 196.52C94.2163 196.52 95.0976 197.082 95.0757 197.768C95.0537 198.455 90.6471 220.8 85.2812 247.425C76.0943 293.016 75.3988 295.852 73.3304 296.153C71.3819 296.435 71.1341 297.073 71.1341 301.808C71.1341 304.744 71.5588 307.295 72.0784 307.479C72.598 307.661 67.6288 334.536 61.0349 367.199C54.442 399.863 47.7891 432.876 46.2523 440.561L43.4575 454.535L46.4142 455.34C48.0399 455.783 49.4908 456.008 49.6387 455.839C49.9245 455.512 56.8062 430.351 76.7478 356.719C83.5865 331.466 89.424 310.019 89.7188 309.059C90.0366 308.021 91.2406 307.312 92.6845 307.312C94.9648 307.312 95.1156 306.972 95.1156 301.822C95.1156 298.803 94.7079 296.333 94.2103 296.333C93.7117 296.333 94.7799 290.831 96.5825 284.106C107.766 242.389 112.45 225.48 112.741 225.771C112.924 225.953 113.969 240.669 115.064 258.473C116.159 276.276 117.524 297.805 118.096 306.314C118.668 314.823 120.693 347.162 122.593 378.178C124.495 409.195 126.597 443.219 127.265 453.786L128.48 473H132.192H135.904L136.504 464.766C136.833 460.236 137.773 443.281 138.591 427.086C139.409 410.892 140.973 380.349 142.064 359.214C146.464 274.037 148.043 243.296 148.689 230.187C149.062 222.627 149.535 216.611 149.74 216.816C151.11 218.185 172.041 298.647 172.048 302.571C172.053 305.761 172.476 307.312 173.339 307.312C174.191 307.312 181.521 332.7 195.169 382.92C212.853 447.985 215.982 458.563 217.618 458.783C222.699 459.464 222.899 460.908 207.107 382.724C198.821 341.699 192.041 307.949 192.041 307.722C192.041 307.497 192.715 307.312 193.54 307.312C194.688 307.312 195.039 306.044 195.039 301.888C195.039 296.714 194.913 296.45 192.291 296.149L189.543 295.834L179.84 247.924C174.503 221.573 170.12 199.228 170.098 198.267C170.076 197.306 170.732 196.52 171.557 196.52C172.778 196.52 173.055 194.857 173.055 187.537V178.554H132.087H91.1187V187.537ZM111.359 199.764C111.69 201.982 107.852 217.691 99.2275 249.421C87.5764 292.287 86.4413 295.857 84.3689 296.153C83.1349 296.328 82.1256 296.27 82.1256 296.024C82.1256 295.546 99.5542 209.238 101.261 201.262L102.276 196.52H106.576C110.663 196.52 110.9 196.682 111.359 199.764ZM142.399 201.761C141.868 209.862 139.202 263.236 138.548 278.865C137.725 298.548 138.218 297.331 131.069 297.331C125.536 297.331 125.093 297.164 125.096 295.085C125.1 293.015 124.469 282.71 120.643 222.249C119.888 210.323 119.509 199.656 119.8 198.544C120.292 196.663 121.121 196.52 131.537 196.52H142.744L142.399 201.761ZM163.063 196.8C163.063 197.271 181.974 291.69 182.547 294.087C182.998 295.963 182.672 296.333 180.569 296.333C179.185 296.333 178.052 296.149 178.052 295.924C178.052 295.566 162.278 237.025 154.158 207.25L151.232 196.52H157.148C160.401 196.52 163.063 196.646 163.063 196.8ZM83.1249 307.996C83.1249 309.613 72.6659 347.103 72.3132 346.751C71.9625 346.4 78.6543 311.575 79.6516 308.56C80.0772 307.273 83.1249 306.778 83.1249 307.996ZM189.709 329.271C192.086 341.073 193.92 351.067 193.786 351.478C193.495 352.362 182.037 310.411 182.044 308.487C182.047 307.76 182.8 307.311 183.717 307.489C185.046 307.745 186.268 312.189 189.709 329.271ZM136.667 315.546C136.344 319.527 135.398 337.156 134.563 354.723C132.17 405.125 132.111 405.152 128.989 357.218C127.47 333.887 126.196 313.339 126.159 311.554L126.092 308.31H131.672H137.254L136.667 315.546ZM71.8166 350.419C71.4979 351.214 71.261 350.978 71.2131 349.815C71.1701 348.763 71.4059 348.174 71.7377 348.505C72.0694 348.837 72.1054 349.698 71.8166 350.419Z" fill="#8F8E8E" fill-opacity="0.05"/>
</svg>
