<svg width="684" height="684" viewBox="0 0 684 684" fill="none" xmlns="http://www.w3.org/2000/svg">
<path fill-rule="evenodd" clip-rule="evenodd" d="M670.839 123.124C676.12 126.356 676.764 132.933 672.224 137.282L670.322 139.106L458.856 139.418L247.391 139.731L239.537 141.43C231.808 143.101 222.896 146.166 216.751 149.265C210.496 152.42 201.312 158.984 195.768 164.261C190.222 169.541 182.047 179.614 182.047 181.17C182.047 181.786 189.094 181.952 215.221 181.952C243.434 181.952 249.067 182.103 252.895 182.959C266.058 185.904 276.561 196.428 279.981 210.099C281.218 215.044 280.871 223.866 279.255 228.551C278.663 230.271 272.982 243.078 266.632 257.011C235.214 325.948 224.912 348.146 223.701 349.508C220.743 352.837 223.693 352.711 148.458 352.715L78.5606 352.719L71.2133 364.911C67.1721 371.617 63.8661 377.386 63.8661 377.73C63.8661 378.129 68.8141 378.356 77.4913 378.356C95.5068 378.356 99.1072 379.269 105.637 385.489C111.143 390.736 113.89 397.105 113.89 404.627C113.89 410.467 112.59 414.211 107.771 422.252C102.867 430.435 98.7346 434.855 93.5458 437.465L89.8159 439.342L58.134 439.655C40.7082 439.827 26.337 440.108 26.197 440.28C25.4391 441.212 23.2661 447.292 22.6652 450.162C21.7879 454.352 21.7748 461.473 22.6358 466.279C23.0016 468.321 24.5211 472.524 26.0137 475.62C30.9785 485.922 39.2594 493.15 50.0877 496.633L55.7372 498.451H142.191H228.644L229.524 497.043C230.648 495.243 242.533 475.664 252.778 458.732C257.149 451.508 261.474 445.034 262.389 444.346C263.991 443.141 265.281 443.084 297.303 442.782L330.555 442.469L330.868 337.589C331.181 232.737 331.181 232.708 332.476 230.942C333.188 229.971 334.735 228.684 335.915 228.083C337.908 227.067 341.899 226.989 392.365 226.989C452.86 226.987 449.507 226.747 452.322 231.276L453.739 233.555L453.886 337.387C453.967 394.494 454.038 441.57 454.043 442C454.05 442.623 476.041 442.782 561.893 442.782H669.735L671.907 444.69C675.671 447.996 676.335 453.148 673.466 456.796C671.237 459.63 669.95 459.967 660.087 460.296L650.707 460.609L648.412 465.3C645.715 470.811 644.421 475.543 643.423 483.552C642.803 488.529 642.854 490.296 643.77 495.636C645.677 506.741 650.05 517.289 656.826 527.125C660.794 532.884 667.636 539.898 672.28 542.966C677.209 546.222 678.632 547.959 678.952 551.11C679.296 554.486 677.775 557.622 674.845 559.58L672.72 561H436.701C221.25 561 200.498 560.912 198.566 559.995C192.819 557.268 192.346 547.734 197.802 544.621C198.948 543.967 209.982 543.735 251.73 543.486L304.218 543.173L300.325 539.108C286.923 525.114 279.594 507.124 279.594 488.227C279.594 482.368 281.386 471.699 283.322 466.039C284.632 462.211 284.898 460.758 284.33 460.54C283.906 460.377 281.077 460.326 278.043 460.427L272.528 460.609L266.467 470.616C263.134 476.121 255.892 488.083 250.375 497.2C241.886 511.226 239.971 513.991 237.926 515.173C235.526 516.56 235.326 516.569 207.896 516.58L180.281 516.59L180.07 526.442C179.839 537.193 179.35 538.833 175.823 540.657C173.448 541.885 91.6468 542.769 86.0642 541.626C75.7861 539.522 69.2261 531.983 68.4226 521.349L68.0737 516.738L60.8115 516.441C30.7898 515.214 7.77379 493.947 4.33278 464.256C3.06343 453.302 5.48459 440.57 10.582 431.4C12.7718 427.46 9.20764 433.409 63.5341 343.016C87.518 303.11 120.548 248.133 136.934 220.846C153.32 193.559 168.956 168.226 171.679 164.551C187.513 143.19 210.453 129.008 238.324 123.352C243.283 122.345 257.868 122.261 456.24 122.087C666.315 121.902 668.865 121.915 670.839 123.124ZM656.609 176.214C659.636 177.838 661.167 180.9 660.837 184.67C660.621 187.139 660.148 188.126 658.287 189.987L656.002 192.273L497.343 192.456C385.106 192.585 338 192.441 336.346 191.964C329.517 189.991 329.015 178.704 335.633 175.938C337.381 175.207 362.549 175.072 496.092 175.072C648.294 175.072 654.562 175.116 656.609 176.214ZM248.495 200.144C254.171 201.487 259.164 205.699 261.593 211.193C263.288 215.026 262.953 222.233 260.873 226.675C260.067 228.395 258.92 230.928 258.323 232.304C257.727 233.68 251.481 247.331 244.444 262.64C237.406 277.949 230.969 292.002 230.14 293.867C229.31 295.734 224.809 305.585 220.137 315.76L211.641 334.259L150.499 334.419L89.3557 334.578L90.2749 333.168C90.7808 332.392 104.801 309.099 121.431 281.405C138.061 253.711 155.905 224.016 161.086 215.416L170.506 199.778L208.323 199.683C229.122 199.63 247.199 199.837 248.495 200.144ZM674.112 228.083C675.291 228.684 676.839 229.971 677.551 230.942C678.84 232.701 678.846 232.986 678.846 294.54C678.846 356.095 678.84 356.38 677.551 358.139C676.839 359.11 675.291 360.397 674.112 360.998C672.1 362.024 666.465 362.092 582.988 362.092C486.346 362.094 492.482 362.318 489.068 358.662L487.505 356.989V294.54V232.092L489.068 230.398C492.388 226.798 487.167 226.987 583.312 226.989C666.481 226.989 672.1 227.057 674.112 228.083ZM660.697 245.007C660.877 245.187 661.025 267.665 661.025 294.958V344.58H583.242C512.891 344.58 505.423 344.485 505.08 343.59C504.435 341.91 504.642 245.862 505.291 245.461C506.028 245.005 660.244 244.555 660.697 245.007ZM435.656 245.075C435.8 245.218 435.918 289.76 435.918 344.059V442.782H392.502C351.555 442.782 349.066 442.72 348.735 441.677C348.256 440.166 348.858 245.687 349.344 245.202C349.768 244.778 435.23 244.651 435.656 245.075ZM408.123 335.419C409.172 335.894 410.802 337.2 411.745 338.322L413.46 340.361L413.278 358.473L413.095 376.584L411.09 378.375C409.987 379.36 407.966 380.502 406.598 380.912C404.368 381.58 403.805 381.503 401.142 380.163C396.06 377.606 395.899 376.93 395.899 358.174C395.899 345.831 396.103 341.55 396.766 339.962C398.489 335.836 404.093 333.594 408.123 335.419ZM92.1571 397.477C94.0192 398.487 96.3816 402.511 96.3816 404.671C96.3816 406.218 93.6315 411.526 90.2611 416.486C86.2323 422.415 87.4998 422.18 60.5351 421.992L37.0233 421.828L44.6345 409.162L52.245 396.496L71.3434 396.521C87.0365 396.541 90.747 396.712 92.1571 397.477ZM630.385 460.812C630.385 461.096 629.689 463.374 628.839 465.876C626.95 471.43 625.382 481.579 625.387 488.21C625.398 503.825 631.106 520.89 641.424 536.163C643.95 539.903 646.018 543.08 646.018 543.225C646.018 543.369 629.697 543.486 609.75 543.486C589.803 543.486 573.483 543.264 573.483 542.991C573.483 542.719 574.785 541.241 576.376 539.707C583.186 533.142 590.486 521.306 593.914 511.273C598.435 498.037 598.399 479.386 593.825 465.972C592.955 463.418 592.242 461.096 592.242 460.812C592.242 460.528 600.824 460.296 611.314 460.296C621.803 460.296 630.385 460.528 630.385 460.812ZM572.493 461.699C574.138 464.223 577.214 472.021 578.282 476.373C579.677 482.057 579.667 494.635 578.263 500.858C573.841 520.462 558.162 536.312 537.841 541.721C529.816 543.857 518.977 543.721 511.017 541.383C494.466 536.523 481.933 525.814 475.051 510.648C472.432 504.877 470.308 494.992 470.315 488.604C470.322 481.131 472.658 471.047 475.746 465.151L478.125 460.609L524.849 460.448L571.574 460.288L572.493 461.699ZM457.803 460.893C457.803 461.237 457.129 463.311 456.304 465.502C452.953 474.407 451.798 490.657 453.728 501.728C456.032 514.944 462.746 528.144 472.263 538.165C474.627 540.656 476.562 542.872 476.562 543.09C476.562 543.308 459.538 543.486 438.732 543.486C417.925 543.486 400.901 543.299 400.901 543.07C400.901 542.841 402.534 540.942 404.53 538.848C413.762 529.164 421.311 514.524 423.241 502.562L423.738 499.48L427.025 498.74C430.34 497.993 432.302 496.702 433.631 494.392C434.104 493.57 434.463 487.496 434.667 476.871L434.98 460.609L446.392 460.438C453.694 460.329 457.803 460.493 457.803 460.893ZM416.781 462.354C416.993 463.486 417.025 467.498 416.852 471.268C416.679 475.038 416.536 478.756 416.536 479.53L416.534 480.937H392.147H367.76V470.616V460.296H392.078H416.394L416.781 462.354ZM349.627 475.995C349.627 493.389 349.871 494.699 353.612 497.369C355.545 498.747 355.854 498.765 380.502 498.947L405.436 499.131L405.119 501.449C404.148 508.556 397.778 520.059 390.947 527.043C377.635 540.653 356.958 546.367 338.874 541.435C307.16 532.785 290.159 501.047 300.755 470.274C302.204 466.066 304.52 461.401 305.471 460.774C305.855 460.522 315.947 460.311 327.898 460.305L349.627 460.296V475.995ZM162.038 520.343V524.096H125.242C83.6768 524.096 86.3768 524.436 86.3768 519.199V516.59H124.207H162.038V520.343Z" fill="url(#paint0_linear_2767_40184)"/>
<defs>
<linearGradient id="paint0_linear_2767_40184" x1="4.0001" y1="122" x2="405.288" y2="739.014" gradientUnits="userSpaceOnUse">
<stop stop-color="#3E4EB0"/>
<stop offset="1" stop-color="#164E47"/>
</linearGradient>
</defs>
</svg>
