<svg width="24" height="24" viewBox="0 0 24 24" fill="none" xmlns="http://www.w3.org/2000/svg">
<g clip-path="url(#clip0_2627_40461)">
<path fill-rule="evenodd" clip-rule="evenodd" d="M11.5742 0.363398C9.48353 0.445023 7.50534 1.05815 5.75708 2.16637C3.66109 3.49502 2.02131 5.49827 1.14004 7.80686C0.9607 8.27666 0.765063 8.90821 0.679925 9.29221C0.6629 9.36902 0.634638 9.49655 0.617125 9.57561C0.568563 9.79485 0.490063 10.2632 0.46155 10.5039C0.4475 10.6224 0.4335 10.7278 0.430425 10.7381C0.427362 10.7484 0.41305 10.92 0.398638 11.1194C0.361925 11.6268 0.361913 12.3154 0.3986 12.8187C0.413113 13.0176 0.42775 13.192 0.431125 13.2062C0.434512 13.2203 0.451063 13.3444 0.4679 13.4819C0.484738 13.6194 0.520675 13.8556 0.547775 14.0069C1.15811 17.4134 3.23447 20.3526 6.24078 22.0656C8.4222 23.3086 10.9758 23.8118 13.4617 23.4887C18.1019 22.8855 21.9069 19.592 23.1679 15.0872C23.2383 14.8359 23.3452 14.3905 23.3763 14.2194C23.4661 13.7242 23.4736 13.6749 23.5232 13.2444C23.5767 12.7795 23.5906 12.5148 23.5902 11.9694C23.5896 11.2174 23.5435 10.6791 23.4182 9.95919C23.0953 8.1034 22.2972 6.31066 21.1296 4.81824C19.1044 2.22954 16.0809 0.619536 12.8117 0.388998C12.3965 0.359711 11.9207 0.349861 11.5742 0.363398ZM17.693 5.85045L16.993 5.85686L16.2616 6.61311C14.5334 8.40007 12.5662 10.4355 12.5368 10.4671C12.5166 10.4887 12.4374 10.3949 10.8734 8.49834C9.97013 7.40302 9.14163 6.39857 9.03223 6.26624L8.83334 6.02561H7.11476C5.74179 6.02561 5.3986 6.02875 5.40824 6.04124C5.43369 6.0742 6.58469 7.47104 7.89313 9.05686C10.1212 11.7573 10.6617 12.415 10.6617 12.4257C10.6617 12.4325 10.6569 12.4381 10.6509 12.4381C10.6449 12.4381 10.126 12.9682 9.49774 13.6162C8.01509 15.1453 6.52442 16.6829 5.87745 17.3506L5.36265 17.8819L6.14657 17.8853L6.93049 17.8887L7.11235 17.704C7.21238 17.6024 8.14308 16.639 9.18056 15.5631C10.2181 14.4872 11.1376 13.5347 11.224 13.4465L11.381 13.2862L12.5804 14.7403C13.2401 15.54 14.0826 16.5614 14.4526 17.01L15.1253 17.8256H16.8455C18.4825 17.8256 18.5647 17.8245 18.5469 17.8037C18.5366 17.7917 18.1853 17.3656 17.7661 16.8569C17.347 16.3481 16.6723 15.5297 16.2669 15.0381C15.8614 14.5465 15.0131 13.518 14.3816 12.7524L13.2336 11.3604L13.3772 11.2149C13.4976 11.0929 15.5891 8.93099 17.8353 6.60686C18.141 6.29061 18.4336 5.98826 18.4855 5.93499L18.5799 5.83811L18.4865 5.84107C18.435 5.84271 18.078 5.84694 17.693 5.85045ZM7.67126 7.12534L7.29954 7.13186L11.3068 11.9412L15.314 16.7506H16.0066C16.3875 16.7506 16.6992 16.7477 16.6992 16.7442C16.6992 16.7407 16.3573 16.3259 15.9393 15.8224C15.5213 15.3188 14.3923 13.959 13.4305 12.8006C12.4687 11.6422 11.4109 10.3681 11.0799 9.96936C10.749 9.57061 10.3193 9.05311 10.1252 8.81936C9.93101 8.58561 9.53285 8.10609 9.24036 7.75374L8.70856 7.11311L8.37578 7.11596C8.19274 7.11752 7.87571 7.12174 7.67126 7.12534Z" fill="#FAEEF2"/>
</g>
<defs>
<clipPath id="clip0_2627_40461">
<rect width="24" height="24" fill="white"/>
</clipPath>
</defs>
</svg>
